<svg xmlns="http://www.w3.org/2000/svg" enable-background="new 0 0 24 24" viewBox="0 0 24 24"><path fill="#ebedee" d="M14.7069092,12l1.6465454-1.6465454c0.1871338-0.1937256,0.1871338-0.5009155,0-0.6947021c-0.1918335-0.1986084-0.5083618-0.2041016-0.7069702-0.0122681l-1.6465454,1.6465454l-1.6464844-1.6464844c-0.1937256-0.1871338-0.5009155-0.1871338-0.6947021,0c-0.1986084,0.1918335-0.2041016,0.5083618-0.0122681,0.7069702L13.2929688,12l-1.6464844,1.6464844c-0.09375,0.09375-0.1464233,0.2208862-0.1464233,0.3534546C11.5,14.276062,11.723877,14.499939,12,14.5c0.1326294,0.0001221,0.2598267-0.0526123,0.3534546-0.1465454l1.6464844-1.6464844l1.6465454,1.6465454C15.7401123,14.4474487,15.8673706,14.5001831,16,14.5c0.1325073-0.000061,0.2595825-0.0526733,0.3533325-0.1463623c0.1953125-0.1952515,0.1953735-0.5118408,0.0001221-0.7070923L14.7069092,12z M19.5,5H9.828125C9.1647339,4.9981079,8.5281982,5.2618408,8.0605469,5.7324219l-5.9140625,5.9141235c-0.000061,0-0.0001221,0.000061-0.0001221,0.0001221c-0.1951904,0.1951904-0.1951294,0.5117188,0.0001221,0.7068481l5.9140625,5.9140625C8.5281982,18.7381592,9.1647339,19.0018921,9.828125,19H19.5c1.380188-0.0012817,2.4987183-1.119812,2.5-2.5v-9C21.9987183,6.119812,20.880188,5.0012817,19.5,5z M21,16.5c-0.0009155,0.828064-0.671936,1.4990845-1.5,1.5H9.828125c-0.397583-0.0012207-0.7786255-0.1591187-1.0605469-0.4394531L3.2069702,12l5.5606079-5.5605469C9.0494995,6.1591187,9.430542,6.0012207,9.828125,6H19.5c0.828064,0.0009155,1.4990845,0.671936,1.5,1.5V16.5z" class="color000000 svgShape"/></svg>